<?xml version="1.0" standalone="no"?>
<!DOCTYPE svg PUBLIC "-//W3C//DTD SVG 20010904//EN"
 "http://www.w3.org/TR/2001/REC-SVG-20010904/DTD/svg10.dtd">
<svg version="1.0" xmlns="http://www.w3.org/2000/svg"
 width="200.000000pt" height="200.000000pt" viewBox="0 0 200.000000 200.000000"
 preserveAspectRatio="xMidYMid meet">

<g transform="translate(0.000000,200.000000) scale(0.100000,-0.100000)"
fill="#000000" stroke="none">
<path d="M846 1733 c-289 -61 -520 -295 -580 -585 -81 -391 170 -781 564 -879
71 -18 269 -18 339 0 235 60 436 232 524 448 40 99 52 162 52 283 0 165 -33
277 -120 410 -168 256 -483 387 -779 323z m307 -129 c176 -45 327 -168 406
-329 43 -89 61 -170 61 -275 0 -105 -18 -186 -61 -275 -79 -161 -230 -284
-406 -329 -79 -21 -227 -21 -306 0 -221 57 -394 231 -451 451 -21 79 -21 228
0 306 56 217 220 385 439 448 78 23 236 24 318 3z"/>
<path d="M605 1110 c-44 -18 -70 -59 -70 -111 0 -41 5 -53 31 -80 36 -35 95
-47 134 -27 32 17 70 74 70 105 0 84 -89 145 -165 113z"/>
<path d="M955 1110 c-57 -23 -90 -108 -63 -160 18 -33 75 -70 107 -70 14 0 37
6 51 13 32 16 70 73 70 104 0 84 -89 145 -165 113z"/>
<path d="M1305 1111 c-58 -25 -90 -109 -63 -161 7 -13 29 -35 48 -48 114 -78
241 86 141 182 -31 30 -91 42 -126 27z"/>
</g>
</svg>
