<svg xmlns="http://www.w3.org/2000/svg" id="Layer_1" data-name="Layer 1" viewBox="0 0 24 24" width="300" height="300" version="1.1" xmlns:xlink="http://www.w3.org/1999/xlink" xmlns:svgjs="http://svgjs.dev/svgjs"><g width="100%" height="100%" transform="matrix(1,0,0,1,0,0)"><path d="M23.989,11.479c.012,.276-.203,.509-.479,.521-.008,0-.015,0-.021,0-.267,0-.488-.21-.5-.479-.252-5.9-5.079-10.521-10.989-10.521-3.718,0-7.168,1.909-9.192,5h3.192c.276,0,.5,.224,.5,.5s-.224,.5-.5,.5H2.5c-.827,0-1.5-.673-1.5-1.5V1.5c0-.276,.224-.5,.5-.5s.5,.224,.5,.5v3.913C4.211,2.066,7.96,0,12,0c6.447,0,11.714,5.042,11.989,11.479Zm-2.489,5.521h-3.5c-.276,0-.5,.224-.5,.5s.224,.5,.5,.5h3.194c-2.024,3.089-5.482,5-9.194,5-5.91,0-10.737-4.621-10.99-10.521-.011-.276-.237-.494-.521-.478-.276,.012-.49,.245-.478,.521,.275,6.437,5.542,11.479,11.989,11.479,4.033,0,7.789-2.067,10-5.412v3.912c0,.276,.224,.5,.5,.5s.5-.224,.5-.5v-4c0-.827-.673-1.5-1.5-1.5Zm-12,1c-1.378,0-2.5-1.121-2.5-2.5v-7c0-1.378,1.122-2.5,2.5-2.5h5c1.379,0,2.5,1.122,2.5,2.5v7c0,1.379-1.121,2.5-2.5,2.5h-5Zm0-1h5c.827,0,1.5-.673,1.5-1.5v-7c0-.827-.673-1.5-1.5-1.5h-5c-.827,0-1.5,.673-1.5,1.5v7c0,.827,.673,1.5,1.5,1.5Zm0-5h5c.276,0,.5-.224,.5-.5s-.224-.5-.5-.5h-5c-.276,0-.5,.224-.5,.5s.224,.5,.5,.5Zm0-2h5c.276,0,.5-.224,.5-.5s-.224-.5-.5-.5h-5c-.276,0-.5,.224-.5,.5s.224,.5,.5,.5Zm4,4c.276,0,.5-.224,.5-.5s-.224-.5-.5-.5h-4c-.276,0-.5,.224-.5,.5s.224,.5,.5,.5h4Z" fill="#e67300" fill-opacity="1" data-original-color="#000000ff" stroke="none" stroke-opacity="1"/></g></svg>